<svg width="889" height="301" viewBox="0 0 889 301" fill="none" xmlns="http://www.w3.org/2000/svg">
<path d="M67.8231 83.4324C105.204 83.4324 134.981 109.725 134.981 151.541C134.981 185.437 115.341 216.799 76.0595 217.749C66.8727 217.749 50.0832 216.482 38.0453 203.494V293.49C38.0453 296.341 35.5111 298.875 32.66 298.875H6.68368C3.83262 298.875 1.29834 296.341 1.29834 293.49V150.591C1.29834 107.508 30.4425 83.4324 67.8231 83.4324ZM68.7734 182.903C82.0784 182.903 98.5512 173.399 98.5512 150.591C98.5512 127.782 81.128 118.279 67.8231 118.279C54.5181 118.279 38.0453 126.198 38.0453 150.907C38.0453 174.983 55.1517 182.903 68.7734 182.903Z" fill="#111111" stroke="#111111" stroke-width="2.59632"/>
<path d="M167.205 102.541C179.99 89.9358 196.287 83.6331 216.096 83.6331C236.085 83.6331 252.382 90.1159 264.987 103.081C277.593 115.867 283.895 131.804 283.895 150.892C283.895 153.105 283.861 155.109 283.791 156.905C283.662 160.268 280.83 162.777 277.465 162.777H183.682C185.483 170.161 189.354 176.103 195.297 180.605C201.42 184.927 208.533 187.088 216.636 187.088C222.939 187.088 228.971 185.737 234.734 183.036C238.22 181.293 241.245 179.286 243.809 177.016C246.526 174.609 250.598 173.923 253.548 176.039L267.669 186.17C270.663 188.318 271.376 192.518 268.898 195.245C263.547 201.134 256.931 205.978 249.05 209.778C239.146 214.64 228.161 217.071 216.096 217.071C195.927 217.071 179.54 210.858 166.935 198.433C154.329 185.827 148.026 169.981 148.026 150.892C148.026 131.264 154.419 115.147 167.205 102.541ZM183.682 136.576H248.24C246.799 129.553 243.108 123.881 237.165 119.559C231.222 115.057 224.199 112.806 216.096 112.806C207.992 112.806 201.059 115.057 195.297 119.559C189.534 123.881 185.663 129.553 183.682 136.576Z" fill="#111111" stroke="#111111" stroke-width="2.59632"/>
<path d="M343.279 27.8794C348.461 26.0656 353.882 29.9115 353.882 35.4019V87.9067H366.441C370.843 87.9068 374.412 91.4756 374.412 95.8774V113.056C374.412 117.458 370.843 121.027 366.441 121.027H353.882V176.993C353.882 179.562 354.563 181.258 355.702 182.328C356.856 183.412 358.707 184.069 361.498 184.069H366.441C370.843 184.069 374.411 187.637 374.412 192.039V210.298C374.412 214.7 370.843 218.269 366.441 218.269H354.475C342.38 218.269 333.073 215.151 326.802 208.691L326.789 208.677C320.578 202.09 317.521 193.466 317.521 182.936V121.027H303.612C299.21 121.027 295.642 117.458 295.642 113.056V95.8774C295.642 91.4756 299.21 87.907 303.612 87.9067H318.872V42.0767C318.872 38.6897 321.013 35.6721 324.209 34.5532L343.279 27.8794Z" fill="#111111" stroke="#111111" stroke-width="2.59632"/>
<path d="M569.388 218.756C533.13 218.756 504.711 196.87 504.711 153.425V89.7281C504.711 86.7883 507.324 84.175 510.264 84.175H537.05C539.989 84.175 542.603 86.7883 542.603 89.7281V153.425C542.603 170.085 550.116 182.497 569.388 182.497C588.007 182.497 596.174 170.085 596.174 153.425V89.7281C596.174 86.7883 598.787 84.175 601.727 84.175H628.512C631.452 84.175 634.065 86.7883 634.065 89.7281V153.425C634.065 196.87 605.647 218.756 569.388 218.756Z" fill="#111111" stroke="#111111" stroke-width="2.61659"/>
<path d="M718.933 218.755C756.605 218.755 782.116 192.895 782.116 150.753C782.116 121.75 761.845 86.9588 726.697 85.846C716.99 85.846 702.182 85.846 688.923 97.7566L687.335 6.7356C687.335 3.86228 684.781 1.30824 681.908 1.30824H658.638C655.764 1.30824 653.21 3.86228 653.21 6.7356L651.889 151.073C651.889 194.492 681.26 218.755 718.933 218.755ZM719.891 118.508C733.299 118.508 749.901 128.086 749.901 151.073C749.901 174.059 732.342 183.637 718.933 183.637C705.524 183.637 688.923 175.656 688.923 150.753C688.923 126.49 706.163 118.508 719.891 118.508Z" fill="#111111" stroke="#111111" stroke-width="2.61659"/>
<path d="M818.668 181.281C824.139 186.752 829.975 189.487 836.175 189.487C840.734 189.487 844.29 188.393 846.843 186.205C849.578 183.834 850.946 180.825 850.946 177.178C850.946 172.984 849.669 169.61 847.116 167.057C844.563 164.322 839.913 161.586 833.166 158.851C811.648 149.915 800.888 136.968 800.888 120.009C800.888 109.614 804.718 101.043 812.377 94.296C820.036 87.5487 829.884 84.175 841.919 84.175C854.32 84.175 865.079 88.0046 874.197 95.6636C877.844 98.9461 879.667 102.593 879.667 106.605C879.667 110.07 878.3 113.17 875.564 115.905C872.829 118.458 869.638 119.735 865.991 119.735C863.073 119.735 860.52 118.914 858.331 117.273C854.684 114.538 850.946 113.17 847.116 113.17C840.369 113.17 836.995 115.632 836.995 120.556C836.995 123.473 838.272 125.935 840.825 127.941C843.378 129.947 848.119 132.409 855.049 135.327C876.567 144.627 887.327 158.395 887.327 176.631C887.327 188.849 883.223 198.97 875.017 206.994C866.994 214.835 855.596 218.756 840.825 218.756C823.319 218.756 808.912 212.647 797.606 200.429C794.871 197.693 793.503 194.32 793.503 190.308C793.503 186.296 794.871 182.922 797.606 180.187C800.341 177.269 803.624 175.81 807.453 175.81C811.283 175.81 815.021 177.634 818.668 181.281Z" fill="#111111" stroke="#111111" stroke-width="2.61659"/>
<path d="M422.048 181.281C427.519 186.752 433.355 189.487 439.555 189.487C444.114 189.487 447.67 188.393 450.223 186.205C452.958 183.834 454.326 180.825 454.326 177.178C454.326 172.984 453.049 169.61 450.496 167.057C447.943 164.321 443.293 161.586 436.546 158.851C415.028 149.915 404.268 136.968 404.268 120.008C404.268 109.614 408.098 101.043 415.757 94.2957C423.416 87.5484 433.263 84.1748 445.299 84.1748C457.699 84.1748 468.459 88.0043 477.577 95.6634C481.224 98.9459 483.047 102.593 483.047 106.605C483.047 110.07 481.68 113.17 478.944 115.905C476.209 118.458 473.018 119.735 469.37 119.735C466.453 119.735 463.9 118.914 461.711 117.273C458.064 114.538 454.326 113.17 450.496 113.17C443.749 113.17 440.375 115.632 440.375 120.555C440.375 123.473 441.652 125.935 444.205 127.941C446.758 129.947 451.499 132.409 458.429 135.326C479.947 144.627 490.706 158.395 490.706 176.631C490.706 188.849 486.603 198.97 478.397 206.993C470.373 214.835 458.976 218.756 444.205 218.756C426.698 218.756 412.292 212.647 400.986 200.429C398.251 197.693 396.883 194.319 396.883 190.308C396.883 186.296 398.251 182.922 400.986 180.187C403.721 177.269 407.004 175.81 410.833 175.81C414.663 175.81 418.401 177.634 422.048 181.281Z" fill="#111111" stroke="#111111" stroke-width="2.61659"/>
</svg>
