<svg width="137" height="219" viewBox="0 0 137 219" fill="none" xmlns="http://www.w3.org/2000/svg">
<path d="M67.8231 1.2981C105.204 1.2981 134.981 27.5912 134.981 69.4068C134.981 103.303 115.341 134.664 76.0595 135.615C66.8727 135.615 50.0832 134.348 38.0453 121.359V211.355C38.0453 214.206 35.5111 216.741 32.66 216.741H6.68368C3.83262 216.741 1.29834 214.206 1.29834 211.355V68.4564C1.29834 25.3737 30.4425 1.2981 67.8231 1.2981ZM68.7734 100.768C82.0784 100.768 98.5512 91.2649 98.5512 68.4564C98.5512 45.6479 81.128 36.1444 67.8231 36.1444C54.5181 36.1444 38.0453 44.064 38.0453 68.7732C38.0453 92.8488 55.1517 100.768 68.7734 100.768Z" fill="#FF763B" stroke="#FF763B" stroke-width="2.59632"/>
</svg>
